<svg xmlns="http://www.w3.org/2000/svg" xmlns:xlink="http://www.w3.org/1999/xlink" version="1.1" x="0px" y="0px" viewBox="0 0 100 125" style="enable-background:new 0 0 100 100;" xml:space="preserve"><g style="" display="none"><rect x="-934.624" y="-167" style="" width="1293.624" height="1270.059" display="inline" fill="#666666" stroke="#000000" stroke-miterlimit="10"/></g><g><g><path d="M77.194,29.581l4.257-4.288c0.272,0.059,0.546,0.113,0.833,0.128l6.259,0.318c2.894,0.147,5.383-2.101,5.53-4.996    l0.106-2.088c0.147-2.894-2.101-5.383-4.995-5.53l-3.008-0.153l-0.174-3.007c-0.168-2.893-2.672-5.124-5.565-4.956L78.348,5.13    c-2.893,0.168-5.124,2.672-4.956,5.566l0.362,6.256c0.03,0.526,0.161,1.019,0.334,1.49l-4.629,4.662    c2.116,1.153,4.016,2.529,5.65,4.123C75.869,27.97,76.551,28.763,77.194,29.581z"/><path d="M31.169,72.009c-2.138-1.3-4.046-2.84-5.713-4.587l-5.572,5.612c-0.499,0.502-0.85,1.094-1.077,1.721    c-0.351-0.094-0.714-0.156-1.09-0.175l-6.259-0.318c-2.894-0.147-5.383,2.101-5.53,4.995l-0.106,2.088    c-0.147,2.895,2.101,5.383,4.995,5.53l3.008,0.153l0.174,3.007c0.168,2.893,2.672,5.124,5.566,4.956l2.087-0.121    c2.893-0.168,5.124-2.672,4.956-5.565l-0.362-6.256c-0.042-0.725-0.231-1.409-0.537-2.024c0.471-0.227,0.919-0.518,1.307-0.908    l4.492-4.524c-0.22-0.716-0.34-1.476-0.34-2.264V72.009z"/><path d="M89.305,73.392l-6.256,0.362c-0.526,0.03-1.019,0.161-1.49,0.334L74.69,67.27c-1.701,1.81-3.659,3.402-5.859,4.739v1.32    c0,0.698-0.101,1.371-0.276,2.015l6.152,6.108c-0.059,0.272-0.113,0.546-0.128,0.833l-0.318,6.259    c-0.147,2.895,2.101,5.383,4.995,5.53l2.088,0.106c2.895,0.147,5.383-2.101,5.53-4.995l0.153-3.008l3.007-0.174    c2.893-0.168,5.124-2.672,4.956-5.566l-0.121-2.087C94.703,75.455,92.198,73.225,89.305,73.392z"/><path d="M30.331,23.224l-3.365-3.341c-0.502-0.499-1.093-0.85-1.721-1.077c0.094-0.351,0.156-0.714,0.175-1.09l0.318-6.259    c0.147-2.894-2.101-5.383-4.995-5.53l-2.088-0.106c-2.894-0.147-5.383,2.101-5.53,4.996l-0.153,3.008l-3.007,0.174    c-2.893,0.168-5.124,2.672-4.956,5.565l0.121,2.087c0.168,2.893,2.672,5.124,5.565,4.956l6.256-0.362    c0.725-0.042,1.409-0.231,2.024-0.537c0.227,0.471,0.518,0.919,0.908,1.307l2.779,2.759c0.683-0.888,1.409-1.748,2.228-2.548    C26.467,25.687,28.298,24.353,30.331,23.224z"/><path d="M77.749,46.311v-0.007c0.039-6.521-1.962-11.801-5.945-15.692c-4.603-4.495-11.804-6.94-20.39-6.94    c-0.456,0-0.914,0.007-1.378,0.021c-0.467-0.014-0.93-0.021-1.388-0.021c-8.651,0-15.85,2.445-20.452,6.94    c-3.983,3.891-5.983,9.171-5.945,15.692c-0.001,10.264,4.603,18.27,12.964,22.551l0.684,0.35v4.124    c0,1.655,1.346,3.001,3.001,3.001h0.946c1.655,0,3.001-1.346,3.001-3.001v-1.877l1.433,0.203c0.371,0.053,0.746,0.099,1.123,0.139    l1.123,0.12v1.415c0,1.655,1.346,3.001,3.001,3.001h0.947c1.655,0,3.001-1.346,3.001-3.001v-1.415l1.123-0.12    c0.377-0.04,0.752-0.086,1.123-0.139l1.433-0.203v1.877c0,1.655,1.346,3.001,3.001,3.001H61.1c1.655,0,3.001-1.346,3.001-3.001    v-4.124l0.684-0.35C73.146,64.573,77.75,56.567,77.749,46.311z M38.564,61.822c-4.04,1.325-8.703-0.84-10.415-4.836    c-1.712-3.996,0.175-8.31,4.215-9.635c4.04-1.325,8.703,0.84,10.415,4.836C44.492,56.183,42.604,60.497,38.564,61.822z     M46.3,63.237l2.887-5.001h1.627l2.887,5.001H46.3z M61.436,61.822c-4.04-1.325-5.927-5.639-4.215-9.635    c1.712-3.996,6.375-6.162,10.415-4.836c4.04,1.325,5.927,5.639,4.215,9.635C70.139,60.982,65.476,63.147,61.436,61.822z"/></g></g></svg>